<?xml version="1.0" standalone="no"?><!DOCTYPE svg PUBLIC "-//W3C//DTD SVG 1.1//EN" "http://www.w3.org/Graphics/SVG/1.1/DTD/svg11.dtd"><svg class="icon" width="200px" height="200.00px" viewBox="0 0 1024 1024" version="1.1" xmlns="http://www.w3.org/2000/svg"><path d="M511.30094933 52.37418667c-91.57563733 0-179.42300445 36.35063467-244.20169955 101.12932978-64.77869511 64.77869511-101.12932978 152.62606222-101.12932978 244.20169955 0 98.10011022 41.82653155 191.53988267 115.11034311 256.90112v318.65059555l230.22068622-153.44162133L741.52163555 973.25693155V654.48982755c73.16730311-65.24472889 115.11034311-158.68450133 115.11034312-256.90112 0-91.57563733-36.35063467-179.42300445-101.12932978-244.20169955-64.89520355-64.54567822-152.74257067-101.01282133-244.20169956-101.01282133z m0 652.214272C341.78116267 704.58845867 204.41770667 567.22500267 204.41770667 397.705216c0-169.51978667 137.363456-306.88324267 306.88324266-306.88324267 169.51978667 0 306.88324267 137.363456 306.88324267 306.88324267 0 169.51978667-137.47996445 306.88324267-306.88324267 306.88324267z m0 0" fill="#C8C9CC" /><path d="M511.30094933 129.15325155c-148.31524978 0-268.55196445 120.23671467-268.55196444 268.55196445s120.23671467 268.55196445 268.55196444 268.55196445 268.55196445-120.23671467 268.55196445-268.55196445c-0.11650845-148.31524978-120.23671467-268.55196445-268.55196445-268.55196445z m111.96461512 409.76019912H399.21982578c0-32.85538133 10.36925155-61.16693333 31.92331377-85.51719822 11.65084445-13.51497955 36.46714311-33.32141511 73.74984534-58.9532729 20.73850311-14.44704711 35.06904178-26.56392533 44.040192-36.00110933 13.98101333-15.72864 21.08802845-32.85538133 21.08802844-50.79768177 0-17.59277511-4.89335467-30.64172089-13.98101333-39.14683734-9.437184-8.50511645-23.41819733-12.582912-41.82653155-12.582912-19.80643555 0-34.603008 6.75748978-44.50622578 20.27246934-9.90321778 12.582912-15.26260622 31.92331378-16.19467378 57.08913777h-52.66181689c0.46603378-36.00110933 10.83528533-64.77869511 31.45728-86.79879111 21.08802845-23.41819733 49.05005511-35.06904178 83.65306311-35.06904178 30.99124622 0 56.623104 8.97115022 76.89557334 27.02995912 19.80643555 17.94230045 29.70965333 40.894464 29.70965333 69.67204977 0 27.84551822-10.83528533 53.12785067-31.45728 75.96350578-12.582912 13.51497955-35.06904178 30.64172089-66.52632178 51.72974933-32.85538133 21.55406222-52.66181689 40.42843022-59.768832 56.623104h158.334976v46.48686934z" fill="#C8C9CC" /></svg>