<?xml version="1.0" standalone="no"?><!DOCTYPE svg PUBLIC "-//W3C//DTD SVG 1.1//EN" "http://www.w3.org/Graphics/SVG/1.1/DTD/svg11.dtd"><svg class="icon" width="200px" height="200.00px" viewBox="0 0 1024 1024" version="1.1" xmlns="http://www.w3.org/2000/svg"><path d="M264.448 574.061714V1024L515.657143 930.596571 775.04 1024V574.061714z" fill="#FF7E71" /><path d="M254.427429 772.699429c69.851429 59.190857 159.579429 94.957714 257.572571 94.957714 96.548571 0 185.051429-34.523429 254.336-92.123429v-121.051428H254.427429v118.217143z" fill="#F7554D" /><path d="M109.714286 403.675429c0 222.793143 180.114286 403.382857 402.285714 403.382857s402.285714-180.589714 402.285714-403.382857S734.171429 0.292571 512 0.292571 109.714286 180.864 109.714286 403.657143" fill="#FFEFA4" /><path d="M190.957714 409.161143c0 180.205714 145.682286 326.290286 325.376 326.290286 179.712 0 325.394286-146.102857 325.394286-326.290286 0-180.224-145.682286-326.308571-325.394286-326.308572-179.693714 0-325.376 146.102857-325.376 326.308572" fill="#FBD05B" /><path d="M231.625143 405.321143a281.270857 281.270857 0 0 0 140.196571 243.474286 279.698286 279.698286 0 0 0 280.356572 0 281.270857 281.270857 0 0 0 140.196571-243.474286c0-155.245714-125.531429-281.124571-280.374857-281.124572S231.625143 250.057143 231.625143 405.321143" fill="#FFEDC7" /><path d="M561.005714 566.857143V253.513143h-38.619428c-10.532571 10.971429-23.698286 21.065143-39.497143 30.72-15.798857 8.777143-30.72 14.921143-44.763429 18.432v50.907428c28.964571-8.338286 52.662857-21.065143 71.533715-38.180571V566.857143h51.346285z" fill="#F79E00" /></svg>