<?xml version="1.0" standalone="no"?><!DOCTYPE svg PUBLIC "-//W3C//DTD SVG 1.1//EN" "http://www.w3.org/Graphics/SVG/1.1/DTD/svg11.dtd"><svg class="icon" width="200px" height="200.00px" viewBox="0 0 1024 1024" version="1.1" xmlns="http://www.w3.org/2000/svg"><path d="M511.30094933 52.37418667c-91.57563733 0-179.42300445 36.35063467-244.20169955 101.12932978-64.77869511 64.77869511-101.12932978 152.62606222-101.12932978 244.20169955 0 98.10011022 41.82653155 191.53988267 115.11034311 256.90112v318.65059555l230.22068622-153.44162133L741.52163555 973.25693155V654.48982755c73.16730311-65.24472889 115.11034311-158.68450133 115.11034312-256.90112 0-91.57563733-36.35063467-179.42300445-101.12932978-244.20169955-64.89520355-64.54567822-152.74257067-101.01282133-244.20169956-101.01282133z m0 652.214272C341.78116267 704.58845867 204.41770667 567.22500267 204.41770667 397.705216c0-169.51978667 137.363456-306.88324267 306.88324266-306.88324267 169.51978667 0 306.88324267 137.363456 306.88324267 306.88324267 0 169.51978667-137.47996445 306.88324267-306.88324267 306.88324267z m0 0" fill="#FBB274" /><path d="M511.30094933 129.15325155c-148.31524978 0-268.55196445 120.23671467-268.55196444 268.55196445s120.23671467 268.55196445 268.55196444 268.55196445 268.55196445-120.23671467 268.55196445-268.55196445c-0.11650845-148.31524978-120.23671467-268.55196445-268.55196445-268.55196445zM597.40068978 535.30168889c-21.55406222 19.34040178-49.98212267 29.24361955-85.05116445 29.24361956-33.32141511 0-60.23486578-8.50511645-80.50733511-25.63185778-22.48612978-18.874368-35.06904178-46.83639467-37.748736-82.72099556h53.477376c0.93206755 20.73850311 7.22352355 36.93317689 19.80643556 48.11798756 11.30131911 10.36925155 26.09789155 15.72864 44.50622577 15.72864 20.27246933 0 36.46714311-5.82542222 48.11798756-17.12674134 10.36925155-10.36925155 15.72864-22.95216355 15.72864-38.21476978 0-18.40833422-5.82542222-31.92331378-16.66070756-40.42843022-10.83528533-8.97115022-26.56392533-13.04894578-47.18592-13.04894578h-22.48612977v-39.6128711h22.48612977c18.874368 0 33.32141511-4.07779555 43.2246329-12.11687823 9.437184-8.03908267 14.44704711-20.27246933 14.4470471-36.00110933s-4.54382933-27.49599289-13.04894577-35.53507556c-9.437184-8.03908267-23.41819733-12.11687822-41.82653156-12.11687822-18.874368 0-33.32141511 4.54382933-43.57415822 13.98101334-10.83528533 9.437184-17.12674133 23.88423111-18.874368 43.22463288h-51.72974933c2.67969422-32.38934755 14.44704711-57.55517155 36.00110933-75.61398044 20.27246933-17.94230045 46.37036089-26.56392533 77.82764089-26.56392534 32.38934755 0 58.95327289 7.68955733 78.75970844 23.41819734 19.34040178 15.72864 29.24361955 37.28270222 29.24361956 65.24472889 0 35.06904178-17.94230045 58.48723911-53.477376 70.13808355 18.874368 5.82542222 33.78744889 14.44704711 43.57415822 26.09789156 10.83528533 12.11687822 16.19467378 27.84551822 16.19467378 46.83639466-0.23301689 29.59314489-10.60226845 53.82690133-31.22426311 72.70126934z" fill="#FBB274" /></svg>